<svg id="svg" fill="#000000" stroke="#000000" width="200px" height="200px" version="1.1" viewBox="144 144 512 512" xmlns="http://www.w3.org/2000/svg">
    <g id="IconSvg_bgCarrier" stroke-width="0"></g>
    <g id="IconSvg_tracerCarrier" stroke-linecap="round" stroke-linejoin="round" stroke="#CCCCCC"></g>
     <g id="IconSvg_iconCarrier">
      <g xmlns="http://www.w3.org/2000/svg" fill-rule="evenodd">
  <path d="m400 211.07c-104.27 0-188.93 84.656-188.93 188.93s84.656 188.93 188.93 188.93 188.93-84.656 188.93-188.93-84.656-188.93-188.93-188.93zm0 15.742c95.582 0 173.18 77.602 173.18 173.18 0 95.582-77.602 173.18-173.18 173.18s-173.18-77.602-173.18-173.18c0-95.582 77.602-173.18 173.18-173.18z"></path>
  <path d="m400 502.34c-56.48 0-102.34-45.855-102.34-102.34 0-4.3438-3.5273-7.8711-7.8711-7.8711s-7.8711 3.5273-7.8711 7.8711c0 65.172 52.906 118.08 118.08 118.08 4.3438 0 7.8711-3.5273 7.8711-7.8711s-3.5273-7.8711-7.8711-7.8711z"></path>
  <path d="m400 297.66c56.48 0 102.34 45.855 102.34 102.34 0 4.3438 3.5273 7.8711 7.8711 7.8711s7.8711-3.5273 7.8711-7.8711c0-65.172-52.906-118.08-118.08-118.08-4.3438 0-7.8711 3.5273-7.8711 7.8711s3.5273 7.8711 7.8711 7.8711z"></path>
  <path d="m400 360.64c-21.727 0-39.359 17.633-39.359 39.359 0 21.727 17.633 39.359 39.359 39.359s39.359-17.633 39.359-39.359c0-21.727-17.633-39.359-39.359-39.359zm0 15.742c13.035 0 23.617 10.578 23.617 23.617 0 13.035-10.578 23.617-23.617 23.617-13.035 0-23.617-10.578-23.617-23.617 0-13.035 10.578-23.617 23.617-23.617z"></path>
 </g>

      </g>
      </svg>